<?xml version="1.0" standalone="no"?>
 <!DOCTYPE svg PUBLIC "-//W3C//DTD SVG 1.1//EN" 
 "http://www.w3.org/Graphics/SVG/1.1/DTD/svg11.dtd"> 
<svg
  xmlns:svg="http://www.w3.org/2000/svg"
  xmlns="http://www.w3.org/2000/svg"
  xmlns:xlink="http://www.w3.org/1999/xlink"
  version="1.1"
  width="59.1058mm" height="19.6850mm" viewBox="0.0000 0.0000 59.1058 19.6850">
<title>SVG Image created as Keystone_1028.svg date 2025/12/07 16:34:09 </title>
  <desc>Image generated by PCBNEW </desc>
<g style="fill:#000000; fill-opacity:1.0000;stroke:#000000; stroke-opacity:1.0000;
stroke-linecap:round; stroke-linejoin:round;"
 transform="translate(0 0) scale(1 1)">
</g>
<g style="fill:#4D7FC4; fill-opacity:1.0000; stroke:none;">
<circle cx="2.5600" cy="9.8483" r="1.2500" /> 
</g>
<g style="fill:#4D7FC4; fill-opacity:1.0000; stroke:none;">
<circle cx="56.5600" cy="9.8483" r="1.2500" /> 
</g>
<g style="fill:#02FFEE; fill-opacity:0.4000; stroke:none;">
<circle cx="2.5600" cy="9.8483" r="1.2500" /> 
</g>
<g style="fill:#02FFEE; fill-opacity:0.4000; stroke:none;">
<circle cx="56.5600" cy="9.8483" r="1.2500" /> 
</g>
<g style="fill:#F2EDA1; fill-opacity:1.0000; stroke:none;">
<circle cx="2.5600" cy="9.8483" r="1.2500" /> 
</g>
<g style="fill:#F2EDA1; fill-opacity:1.0000; stroke:none;">
<circle cx="56.5600" cy="9.8483" r="1.2500" /> 
</g>
<g style="fill:#E8B2A7; fill-opacity:1.0000; stroke:none;">
<circle cx="2.5600" cy="9.8483" r="1.2500" /> 
</g>
<g style="fill:#E8B2A7; fill-opacity:1.0000; stroke:none;">
<circle cx="56.5600" cy="9.8483" r="1.2500" /> 
</g>
<g style="fill:#28CCD9; fill-opacity:1.0000; stroke:none;">
<circle cx="2.5600" cy="9.8483" r="1.2500" /> 
</g>
<g style="fill:#28CCD9; fill-opacity:1.0000; stroke:none;">
<circle cx="56.5600" cy="9.8483" r="1.2500" /> 
</g>
<g style="fill:#A7A5C6; fill-opacity:1.0000; stroke:none;">
<circle cx="2.5600" cy="9.8483" r="1.2500" /> 
</g>
<g style="fill:#A7A5C6; fill-opacity:1.0000; stroke:none;">
<circle cx="56.5600" cy="9.8483" r="1.2500" /> 
</g>
<g style="fill:#F76F8E; fill-opacity:1.0000; stroke:none;">
<circle cx="2.5600" cy="9.8483" r="1.2500" /> 
</g>
<g style="fill:#F76F8E; fill-opacity:1.0000; stroke:none;">
<circle cx="56.5600" cy="9.8483" r="1.2500" /> 
</g>
<g style="fill:#5BC3EB; fill-opacity:1.0000; stroke:none;">
<circle cx="2.5600" cy="9.8483" r="1.2500" /> 
</g>
<g style="fill:#5BC3EB; fill-opacity:1.0000; stroke:none;">
<circle cx="56.5600" cy="9.8483" r="1.2500" /> 
</g>
<g style="fill:#ED7C33; fill-opacity:1.0000; stroke:none;">
<circle cx="2.5600" cy="9.8483" r="1.2500" /> 
</g>
<g style="fill:#ED7C33; fill-opacity:1.0000; stroke:none;">
<circle cx="56.5600" cy="9.8483" r="1.2500" /> 
</g>
<g style="fill:#F2EDA1; fill-opacity:1.0000; stroke:none;">
<circle cx="2.5600" cy="9.8483" r="1.2500" /> 
</g>
<g style="fill:#F2EDA1; fill-opacity:1.0000; stroke:none;">
<circle cx="56.5600" cy="9.8483" r="1.2500" /> 
</g>
<g style="fill:#E8B2A7; fill-opacity:1.0000; stroke:none;">
<circle cx="2.5600" cy="9.8483" r="1.2500" /> 
</g>
<g style="fill:#E8B2A7; fill-opacity:1.0000; stroke:none;">
<circle cx="56.5600" cy="9.8483" r="1.2500" /> 
</g>
<g style="fill:#28CCD9; fill-opacity:1.0000; stroke:none;">
<circle cx="2.5600" cy="9.8483" r="1.2500" /> 
</g>
<g style="fill:#28CCD9; fill-opacity:1.0000; stroke:none;">
<circle cx="56.5600" cy="9.8483" r="1.2500" /> 
</g>
<g style="fill:#A7A5C6; fill-opacity:1.0000; stroke:none;">
<circle cx="2.5600" cy="9.8483" r="1.2500" /> 
</g>
<g style="fill:#A7A5C6; fill-opacity:1.0000; stroke:none;">
<circle cx="56.5600" cy="9.8483" r="1.2500" /> 
</g>
<g style="fill:#F76F8E; fill-opacity:1.0000; stroke:none;">
<circle cx="2.5600" cy="9.8483" r="1.2500" /> 
</g>
<g style="fill:#F76F8E; fill-opacity:1.0000; stroke:none;">
<circle cx="56.5600" cy="9.8483" r="1.2500" /> 
</g>
<g style="fill:#5BC3EB; fill-opacity:1.0000; stroke:none;">
<circle cx="2.5600" cy="9.8483" r="1.2500" /> 
</g>
<g style="fill:#5BC3EB; fill-opacity:1.0000; stroke:none;">
<circle cx="56.5600" cy="9.8483" r="1.2500" /> 
</g>
<g style="fill:#ED7C33; fill-opacity:1.0000; stroke:none;">
<circle cx="2.5600" cy="9.8483" r="1.2500" /> 
</g>
<g style="fill:#ED7C33; fill-opacity:1.0000; stroke:none;">
<circle cx="56.5600" cy="9.8483" r="1.2500" /> 
</g>
<g style="fill:#F2EDA1; fill-opacity:1.0000; stroke:none;">
<circle cx="2.5600" cy="9.8483" r="1.2500" /> 
</g>
<g style="fill:#F2EDA1; fill-opacity:1.0000; stroke:none;">
<circle cx="56.5600" cy="9.8483" r="1.2500" /> 
</g>
<g style="fill:#E8B2A7; fill-opacity:1.0000; stroke:none;">
<circle cx="2.5600" cy="9.8483" r="1.2500" /> 
</g>
<g style="fill:#E8B2A7; fill-opacity:1.0000; stroke:none;">
<circle cx="56.5600" cy="9.8483" r="1.2500" /> 
</g>
<g style="fill:#28CCD9; fill-opacity:1.0000; stroke:none;">
<circle cx="2.5600" cy="9.8483" r="1.2500" /> 
</g>
<g style="fill:#28CCD9; fill-opacity:1.0000; stroke:none;">
<circle cx="56.5600" cy="9.8483" r="1.2500" /> 
</g>
<g style="fill:#A7A5C6; fill-opacity:1.0000; stroke:none;">
<circle cx="2.5600" cy="9.8483" r="1.2500" /> 
</g>
<g style="fill:#A7A5C6; fill-opacity:1.0000; stroke:none;">
<circle cx="56.5600" cy="9.8483" r="1.2500" /> 
</g>
<g style="fill:#F76F8E; fill-opacity:1.0000; stroke:none;">
<circle cx="2.5600" cy="9.8483" r="1.2500" /> 
</g>
<g style="fill:#F76F8E; fill-opacity:1.0000; stroke:none;">
<circle cx="56.5600" cy="9.8483" r="1.2500" /> 
</g>
<g style="fill:#5BC3EB; fill-opacity:1.0000; stroke:none;">
<circle cx="2.5600" cy="9.8483" r="1.2500" /> 
</g>
<g style="fill:#5BC3EB; fill-opacity:1.0000; stroke:none;">
<circle cx="56.5600" cy="9.8483" r="1.2500" /> 
</g>
<g style="fill:#ED7C33; fill-opacity:1.0000; stroke:none;">
<circle cx="2.5600" cy="9.8483" r="1.2500" /> 
</g>
<g style="fill:#ED7C33; fill-opacity:1.0000; stroke:none;">
<circle cx="56.5600" cy="9.8483" r="1.2500" /> 
</g>
<g style="fill:#8DCB81; fill-opacity:1.0000; stroke:none;">
<circle cx="2.5600" cy="9.8483" r="1.2500" /> 
</g>
<g style="fill:#8DCB81; fill-opacity:1.0000; stroke:none;">
<circle cx="56.5600" cy="9.8483" r="1.2500" /> 
</g>
<g style="fill:#F2EDA1; fill-opacity:1.0000; stroke:none;">
<circle cx="2.5600" cy="9.8483" r="1.2500" /> 
</g>
<g style="fill:#F2EDA1; fill-opacity:1.0000; stroke:none;">
<circle cx="56.5600" cy="9.8483" r="1.2500" /> 
</g>
<g style="fill:#E8B2A7; fill-opacity:1.0000; stroke:none;">
<circle cx="2.5600" cy="9.8483" r="1.2500" /> 
</g>
<g style="fill:#E8B2A7; fill-opacity:1.0000; stroke:none;">
<circle cx="56.5600" cy="9.8483" r="1.2500" /> 
</g>
<g style="fill:#28CCD9; fill-opacity:1.0000; stroke:none;">
<circle cx="2.5600" cy="9.8483" r="1.2500" /> 
</g>
<g style="fill:#28CCD9; fill-opacity:1.0000; stroke:none;">
<circle cx="56.5600" cy="9.8483" r="1.2500" /> 
</g>
<g style="fill:#A7A5C6; fill-opacity:1.0000; stroke:none;">
<circle cx="2.5600" cy="9.8483" r="1.2500" /> 
</g>
<g style="fill:#A7A5C6; fill-opacity:1.0000; stroke:none;">
<circle cx="56.5600" cy="9.8483" r="1.2500" /> 
</g>
<g style="fill:#DB628B; fill-opacity:1.0000; stroke:none;">
<circle cx="2.5600" cy="9.8483" r="1.2500" /> 
</g>
<g style="fill:#DB628B; fill-opacity:1.0000; stroke:none;">
<circle cx="56.5600" cy="9.8483" r="1.2500" /> 
</g>
<g style="fill:#4FCBCB; fill-opacity:1.0000; stroke:none;">
<circle cx="2.5600" cy="9.8483" r="1.2500" /> 
</g>
<g style="fill:#4FCBCB; fill-opacity:1.0000; stroke:none;">
<circle cx="56.5600" cy="9.8483" r="1.2500" /> 
</g>
<g style="fill:#CE7D2C; fill-opacity:1.0000; stroke:none;">
<circle cx="2.5600" cy="9.8483" r="1.2500" /> 
</g>
<g style="fill:#CE7D2C; fill-opacity:1.0000; stroke:none;">
<circle cx="56.5600" cy="9.8483" r="1.2500" /> 
</g>
<g style="fill:#7FC87F; fill-opacity:1.0000; stroke:none;">
<circle cx="2.5600" cy="9.8483" r="1.2500" /> 
</g>
<g style="fill:#7FC87F; fill-opacity:1.0000; stroke:none;">
<circle cx="56.5600" cy="9.8483" r="1.2500" /> 
</g>
<g style="fill:#C83434; fill-opacity:1.0000; stroke:none;">
<circle cx="2.5600" cy="9.8483" r="1.2500" /> 
</g>
<g style="fill:#C83434; fill-opacity:1.0000; stroke:none;">
<circle cx="56.5600" cy="9.8483" r="1.2500" /> 
</g>
<g style="fill:#D864FF; fill-opacity:0.4000; stroke:none;">
<circle cx="2.5600" cy="9.8483" r="1.2500" /> 
</g>
<g style="fill:#D864FF; fill-opacity:0.4000; stroke:none;">
<circle cx="56.5600" cy="9.8483" r="1.2500" /> 
</g>
<g style="fill:none; 
stroke:#F2EDA1; stroke-width:0.1500; stroke-opacity:1; 
stroke-linecap:round; stroke-linejoin:round;">
<text x="29.5600" y="1.3482"
textLength="4.5357" font-size="1.3333" lengthAdjust="spacingAndGlyphs"
text-anchor="middle" opacity="0" stroke-opacity="0">REF**</text>
<g class="stroked-text"><desc>REF**</desc>
<path d="M28.2267 1.3031
L27.8933 0.8269
" />
<path d="M27.6552 1.3031
L27.6552 0.3031
" />
<path d="M27.6552 0.3031
L28.0362 0.3031
" />
<path d="M28.0362 0.3031
L28.1314 0.3507
" />
<path d="M28.1314 0.3507
L28.1790 0.3983
" />
<path d="M28.1790 0.3983
L28.2267 0.4935
" />
<path d="M28.2267 0.4935
L28.2267 0.6364
" />
<path d="M28.2267 0.6364
L28.1790 0.7316
" />
<path d="M28.1790 0.7316
L28.1314 0.7793
" />
<path d="M28.1314 0.7793
L28.0362 0.8269
" />
<path d="M28.0362 0.8269
L27.6552 0.8269
" />
<path d="M28.6552 0.7793
L28.9886 0.7793
" />
<path d="M29.1314 1.3031
L28.6552 1.3031
" />
<path d="M28.6552 1.3031
L28.6552 0.3031
" />
<path d="M28.6552 0.3031
L29.1314 0.3031
" />
<path d="M29.8933 0.7793
L29.5600 0.7793
" />
<path d="M29.5600 1.3031
L29.5600 0.3031
" />
<path d="M29.5600 0.3031
L30.0362 0.3031
" />
<path d="M30.5600 0.3031
L30.5600 0.5412
" />
<path d="M30.3219 0.4459
L30.5600 0.5412
" />
<path d="M30.5600 0.5412
L30.7981 0.4459
" />
<path d="M30.4171 0.7316
L30.5600 0.5412
" />
<path d="M30.5600 0.5412
L30.7029 0.7316
" />
<path d="M31.3219 0.3031
L31.3219 0.5412
" />
<path d="M31.0838 0.4459
L31.3219 0.5412
" />
<path d="M31.3219 0.5412
L31.5600 0.4459
" />
<path d="M31.1790 0.7316
L31.3219 0.5412
" />
<path d="M31.3219 0.5412
L31.4648 0.7316
" />
</g></g>
<g style="fill:none; 
stroke:#F2EDA1; stroke-width:0.1200; stroke-opacity:1; 
stroke-linecap:round; stroke-linejoin:round;">
<path d="M0.0600 1.8482
L59.0600 1.8482
" />
<path d="M59.0600 1.8482
L59.0600 17.8483
" />
<path d="M59.0600 17.8483
L0.0600 17.8483
" />
<path d="M0.0600 17.8483
L0.0600 1.8482
" />
</g>
<g style="fill:none; 
stroke:#AFAFAF; stroke-width:0.1500; stroke-opacity:1; 
stroke-linecap:round; stroke-linejoin:round;">
<text x="29.5600" y="19.3483"
textLength="11.4881" font-size="1.3333" lengthAdjust="spacingAndGlyphs"
text-anchor="middle" opacity="0" stroke-opacity="0">Keystone_1028</text>
<g class="stroked-text"><desc>Keystone_1028</desc>
<path d="M24.1790 19.3031
L24.1790 18.3031
" />
<path d="M24.7505 19.3031
L24.3219 18.7316
" />
<path d="M24.7505 18.3031
L24.1790 18.8745
" />
<path d="M25.5600 19.2554
L25.4648 19.3031
" />
<path d="M25.4648 19.3031
L25.2743 19.3031
" />
<path d="M25.2743 19.3031
L25.1790 19.2554
" />
<path d="M25.1790 19.2554
L25.1314 19.1602
" />
<path d="M25.1314 19.1602
L25.1314 18.7793
" />
<path d="M25.1314 18.7793
L25.1790 18.6840
" />
<path d="M25.1790 18.6840
L25.2743 18.6364
" />
<path d="M25.2743 18.6364
L25.4648 18.6364
" />
<path d="M25.4648 18.6364
L25.5600 18.6840
" />
<path d="M25.5600 18.6840
L25.6076 18.7793
" />
<path d="M25.6076 18.7793
L25.6076 18.8745
" />
<path d="M25.6076 18.8745
L25.1314 18.9697
" />
<path d="M25.9410 18.6364
L26.1790 19.3031
" />
<path d="M26.4171 18.6364
L26.1790 19.3031
" />
<path d="M26.1790 19.3031
L26.0838 19.5412
" />
<path d="M26.0838 19.5412
L26.0362 19.5888
" />
<path d="M26.0362 19.5888
L25.9410 19.6364
" />
<path d="M26.7505 19.2554
L26.8457 19.3031
" />
<path d="M26.8457 19.3031
L27.0362 19.3031
" />
<path d="M27.0362 19.3031
L27.1314 19.2554
" />
<path d="M27.1314 19.2554
L27.1790 19.1602
" />
<path d="M27.1790 19.1602
L27.1790 19.1126
" />
<path d="M27.1790 19.1126
L27.1314 19.0174
" />
<path d="M27.1314 19.0174
L27.0362 18.9697
" />
<path d="M27.0362 18.9697
L26.8933 18.9697
" />
<path d="M26.8933 18.9697
L26.7981 18.9221
" />
<path d="M26.7981 18.9221
L26.7505 18.8269
" />
<path d="M26.7505 18.8269
L26.7505 18.7793
" />
<path d="M26.7505 18.7793
L26.7981 18.6840
" />
<path d="M26.7981 18.6840
L26.8933 18.6364
" />
<path d="M26.8933 18.6364
L27.0362 18.6364
" />
<path d="M27.0362 18.6364
L27.1314 18.6840
" />
<path d="M27.4648 18.6364
L27.8457 18.6364
" />
<path d="M27.6076 18.3031
L27.6076 19.1602
" />
<path d="M27.6076 19.1602
L27.6552 19.2554
" />
<path d="M27.6552 19.2554
L27.7505 19.3031
" />
<path d="M27.7505 19.3031
L27.8457 19.3031
" />
<path d="M28.3219 19.3031
L28.2267 19.2554
" />
<path d="M28.2267 19.2554
L28.1790 19.2078
" />
<path d="M28.1790 19.2078
L28.1314 19.1126
" />
<path d="M28.1314 19.1126
L28.1314 18.8269
" />
<path d="M28.1314 18.8269
L28.1790 18.7316
" />
<path d="M28.1790 18.7316
L28.2267 18.6840
" />
<path d="M28.2267 18.6840
L28.3219 18.6364
" />
<path d="M28.3219 18.6364
L28.4648 18.6364
" />
<path d="M28.4648 18.6364
L28.5600 18.6840
" />
<path d="M28.5600 18.6840
L28.6076 18.7316
" />
<path d="M28.6076 18.7316
L28.6552 18.8269
" />
<path d="M28.6552 18.8269
L28.6552 19.1126
" />
<path d="M28.6552 19.1126
L28.6076 19.2078
" />
<path d="M28.6076 19.2078
L28.5600 19.2554
" />
<path d="M28.5600 19.2554
L28.4648 19.3031
" />
<path d="M28.4648 19.3031
L28.3219 19.3031
" />
<path d="M29.0838 18.6364
L29.0838 19.3031
" />
<path d="M29.0838 18.7316
L29.1314 18.6840
" />
<path d="M29.1314 18.6840
L29.2267 18.6364
" />
<path d="M29.2267 18.6364
L29.3695 18.6364
" />
<path d="M29.3695 18.6364
L29.4648 18.6840
" />
<path d="M29.4648 18.6840
L29.5124 18.7793
" />
<path d="M29.5124 18.7793
L29.5124 19.3031
" />
<path d="M30.3695 19.2554
L30.2743 19.3031
" />
<path d="M30.2743 19.3031
L30.0838 19.3031
" />
<path d="M30.0838 19.3031
L29.9886 19.2554
" />
<path d="M29.9886 19.2554
L29.9410 19.1602
" />
<path d="M29.9410 19.1602
L29.9410 18.7793
" />
<path d="M29.9410 18.7793
L29.9886 18.6840
" />
<path d="M29.9886 18.6840
L30.0838 18.6364
" />
<path d="M30.0838 18.6364
L30.2743 18.6364
" />
<path d="M30.2743 18.6364
L30.3695 18.6840
" />
<path d="M30.3695 18.6840
L30.4171 18.7793
" />
<path d="M30.4171 18.7793
L30.4171 18.8745
" />
<path d="M30.4171 18.8745
L29.9410 18.9697
" />
<path d="M30.6076 19.3983
L31.3695 19.3983
" />
<path d="M32.1314 19.3031
L31.5600 19.3031
" />
<path d="M31.8457 19.3031
L31.8457 18.3031
" />
<path d="M31.8457 18.3031
L31.7505 18.4459
" />
<path d="M31.7505 18.4459
L31.6552 18.5412
" />
<path d="M31.6552 18.5412
L31.5600 18.5888
" />
<path d="M32.7505 18.3031
L32.8457 18.3031
" />
<path d="M32.8457 18.3031
L32.9410 18.3507
" />
<path d="M32.9410 18.3507
L32.9886 18.3983
" />
<path d="M32.9886 18.3983
L33.0362 18.4935
" />
<path d="M33.0362 18.4935
L33.0838 18.6840
" />
<path d="M33.0838 18.6840
L33.0838 18.9221
" />
<path d="M33.0838 18.9221
L33.0362 19.1126
" />
<path d="M33.0362 19.1126
L32.9886 19.2078
" />
<path d="M32.9886 19.2078
L32.9410 19.2554
" />
<path d="M32.9410 19.2554
L32.8457 19.3031
" />
<path d="M32.8457 19.3031
L32.7505 19.3031
" />
<path d="M32.7505 19.3031
L32.6552 19.2554
" />
<path d="M32.6552 19.2554
L32.6076 19.2078
" />
<path d="M32.6076 19.2078
L32.5600 19.1126
" />
<path d="M32.5600 19.1126
L32.5124 18.9221
" />
<path d="M32.5124 18.9221
L32.5124 18.6840
" />
<path d="M32.5124 18.6840
L32.5600 18.4935
" />
<path d="M32.5600 18.4935
L32.6076 18.3983
" />
<path d="M32.6076 18.3983
L32.6552 18.3507
" />
<path d="M32.6552 18.3507
L32.7505 18.3031
" />
<path d="M33.4648 18.3983
L33.5124 18.3507
" />
<path d="M33.5124 18.3507
L33.6076 18.3031
" />
<path d="M33.6076 18.3031
L33.8457 18.3031
" />
<path d="M33.8457 18.3031
L33.9410 18.3507
" />
<path d="M33.9410 18.3507
L33.9886 18.3983
" />
<path d="M33.9886 18.3983
L34.0362 18.4935
" />
<path d="M34.0362 18.4935
L34.0362 18.5888
" />
<path d="M34.0362 18.5888
L33.9886 18.7316
" />
<path d="M33.9886 18.7316
L33.4171 19.3031
" />
<path d="M33.4171 19.3031
L34.0362 19.3031
" />
<path d="M34.6076 18.7316
L34.5124 18.6840
" />
<path d="M34.5124 18.6840
L34.4648 18.6364
" />
<path d="M34.4648 18.6364
L34.4171 18.5412
" />
<path d="M34.4171 18.5412
L34.4171 18.4935
" />
<path d="M34.4171 18.4935
L34.4648 18.3983
" />
<path d="M34.4648 18.3983
L34.5124 18.3507
" />
<path d="M34.5124 18.3507
L34.6076 18.3031
" />
<path d="M34.6076 18.3031
L34.7981 18.3031
" />
<path d="M34.7981 18.3031
L34.8933 18.3507
" />
<path d="M34.8933 18.3507
L34.9410 18.3983
" />
<path d="M34.9410 18.3983
L34.9886 18.4935
" />
<path d="M34.9886 18.4935
L34.9886 18.5412
" />
<path d="M34.9886 18.5412
L34.9410 18.6364
" />
<path d="M34.9410 18.6364
L34.8933 18.6840
" />
<path d="M34.8933 18.6840
L34.7981 18.7316
" />
<path d="M34.7981 18.7316
L34.6076 18.7316
" />
<path d="M34.6076 18.7316
L34.5124 18.7793
" />
<path d="M34.5124 18.7793
L34.4648 18.8269
" />
<path d="M34.4648 18.8269
L34.4171 18.9221
" />
<path d="M34.4171 18.9221
L34.4171 19.1126
" />
<path d="M34.4171 19.1126
L34.4648 19.2078
" />
<path d="M34.4648 19.2078
L34.5124 19.2554
" />
<path d="M34.5124 19.2554
L34.6076 19.3031
" />
<path d="M34.6076 19.3031
L34.7981 19.3031
" />
<path d="M34.7981 19.3031
L34.8933 19.2554
" />
<path d="M34.8933 19.2554
L34.9410 19.2078
" />
<path d="M34.9410 19.2078
L34.9886 19.1126
" />
<path d="M34.9886 19.1126
L34.9886 18.9221
" />
<path d="M34.9886 18.9221
L34.9410 18.8269
" />
<path d="M34.9410 18.8269
L34.8933 18.7793
" />
<path d="M34.8933 18.7793
L34.7981 18.7316
" />
</g></g> 
</svg>
